<svg xmlns="http://www.w3.org/2000/svg" version="1.1" xmlns:xlink="http://www.w3.org/1999/xlink" xmlns:svgjs="http://svgjs.dev/svgjs" width="2000" height="676" viewBox="0 0 2000 676"><g transform="matrix(1,0,0,1,-1.2121212121212466,-0.7353463271273313)"><svg viewBox="0 0 396 134" data-background-color="#ffffff" preserveAspectRatio="xMidYMid meet" height="676" width="2000" xmlns="http://www.w3.org/2000/svg" xmlns:xlink="http://www.w3.org/1999/xlink"><g id="tight-bounds" transform="matrix(1,0,0,1,0.2400000000000091,0.14576391691576873)"><svg viewBox="0 0 395.52 133.70847216616846" height="133.70847216616846" width="395.52"><g><svg viewBox="0 0 670.4880596042616 226.6634659570811" height="133.70847216616846" width="395.52"><g transform="matrix(1,0,0,1,274.9680596042616,62.178085797992175)"><svg viewBox="0 0 395.52 102.30729436109674" height="102.30729436109674" width="395.52"><g><svg viewBox="0 0 395.52 102.30729436109674" height="102.30729436109674" width="395.52"><g><svg viewBox="0 0 395.52 102.30729436109674" height="102.30729436109674" width="395.52"><g transform="matrix(1,0,0,1,0,0)"><svg width="395.52" viewBox="3.7 -36 193.28 50" height="102.30729436109674" data-palette-color="#44e8ff"><path d="M10.9 4.35L10.9 4.35Q8.3 4.35 7.33 3.3 6.35 2.25 6.3 0.6L6.3 0.6Q6.3-0.85 6.88-2.88 7.45-4.9 8.1-6.75L8.1-6.75Q9.15-9.9 10.43-13.3 11.7-16.7 13.05-20.05 14.4-23.4 15.68-26.5 16.95-29.6 18.1-32.15L18.1-32.15Q14.7-32.1 12.28-31.98 9.85-31.85 7.88-31.65 5.9-31.45 3.7-31.05L3.7-31.05Q3.9-33 5.58-34.08 7.25-35.15 10.1-35.58 12.95-36 16.6-36L16.6-36Q19.05-36 21.1-35.85 23.15-35.7 25-35.52 26.85-35.35 28.65-35.25L28.65-35.25Q30.2-34.5 30.7-34.3 31.2-34.1 30.95-34.1L30.95-34.1Q29.75-33.2 28.03-32.77 26.3-32.35 24.45-32.25 22.6-32.15 20.9-32.15L20.9-32.15Q18.75-26.9 16.73-20.63 14.7-14.35 12.85-7.7L12.85-7.7Q12.2-5.2 11.73-3.38 11.25-1.55 11-0.05 10.75 1.45 10.75 3L10.75 3Q10.75 3.25 10.78 3.58 10.8 3.9 10.9 4.35ZM26.95 2.2L26.95 2.2Q23.8 2.2 22.15 0.5 20.5-1.2 20.5-3.75L20.5-3.75Q20.5-6 21.62-8.47 22.75-10.95 24.65-13.13 26.55-15.3 28.82-16.68 31.1-18.05 33.35-18.05L33.35-18.05Q34.6-18.05 35.72-17.4 36.85-16.75 36.85-14.8L36.85-14.8Q36.85-12.9 35.72-11.23 34.6-9.55 32.77-8.25 30.95-6.95 28.72-6.13 26.5-5.3 24.3-5.1L24.3-5.1Q24.25-4.8 24.2-4.5 24.15-4.2 24.15-3.7L24.15-3.7Q24.15-3.3 24.27-2.63 24.4-1.95 24.77-1.28 25.15-0.6 25.95-0.15 26.75 0.3 28.05 0.3L28.05 0.3Q30.15 0.3 32.27-0.9 34.4-2.1 36.25-4.08 38.1-6.05 39.35-8.45L39.35-8.45 40.2-7.75Q38.85-4.75 36.75-2.53 34.65-0.3 32.12 0.95 29.6 2.2 26.95 2.2ZM24.75-6.65L24.75-6.65Q26.05-6.9 27.7-7.68 29.35-8.45 30.85-9.63 32.35-10.8 33.32-12.2 34.3-13.6 34.3-15.05L34.3-15.05Q34.3-15.6 34.1-15.85 33.9-16.1 33.4-16.1L33.4-16.1Q32.2-16.1 30.92-15.23 29.65-14.35 28.42-12.98 27.2-11.6 26.25-9.93 25.3-8.25 24.75-6.65ZM31.4 14L31.4 14Q30 14 29.22 13.2 28.45 12.4 28.45 11.2L28.45 11.2Q28.45 9.25 30.22 7.15 32 5.05 34.8 3.4L34.8 3.4Q35.6 3 36.42 2.6 37.25 2.2 38.15 1.8L38.15 1.8Q39.05-0.4 39.82-3.13 40.6-5.85 41.2-9.1L41.2-9.1Q40.65-8.15 40.12-7.35 39.6-6.55 39.25-5.85L39.25-5.85 38.5-7Q39.4-8.65 40.1-10.48 40.8-12.3 41.42-13.88 42.05-15.45 42.75-16.45 43.45-17.45 44.3-17.45L44.3-17.45Q44.95-17.45 45.35-16.95 45.75-16.45 45.75-15.7L45.75-15.7Q45.75-15.15 45.5-13.65 45.25-12.15 44.77-9.95 44.3-7.75 43.6-5.2 42.9-2.65 42-0.05L42-0.05Q43.45-0.9 44.85-1.83 46.25-2.75 47.67-4.23 49.1-5.7 50.5-8.15L50.5-8.15 51.3-7.65Q49.85-4.5 48.1-2.78 46.35-1.05 44.6-0.05 42.85 0.95 41.3 1.9L41.3 1.9Q40.2 4.95 38.7 7.73 37.2 10.5 35.35 12.25 33.5 14 31.4 14ZM30.9 11.85L30.9 11.85Q31.8 11.85 33.57 9.88 35.35 7.9 37.2 4.05L37.2 4.05Q33.7 5.8 31.95 7.63 30.2 9.45 30.2 10.85L30.2 10.85Q30.2 11.4 30.4 11.63 30.6 11.85 30.9 11.85ZM45.1-21.4L45.1-21.4Q44.2-21.4 43.47-21.85 42.75-22.3 42.75-23.2L42.75-23.2Q42.75-24.05 43.37-24.7 44-25.35 44.92-25.73 45.85-26.1 46.7-26.1L46.7-26.1Q47.5-26.1 48.05-25.7 48.6-25.3 48.6-24.45L48.6-24.45Q48.6-23.25 47.52-22.33 46.45-21.4 45.1-21.4ZM52.04 2.35L52.04 2.35Q50.44 2.35 49.27 1.28 48.09 0.2 48.09-1.95L48.09-1.95Q48.09-3.75 48.89-5.8 49.69-7.85 51.09-9.85 52.49-11.85 54.29-13.5 56.09-15.15 58.12-16.15 60.14-17.15 62.14-17.15L62.14-17.15Q64.24-17.15 65.67-16.07 67.09-15 67.09-13.25L67.09-13.25Q67.09-11.9 66.24-11.35 65.39-10.8 64.14-11L64.14-11Q64.24-11.4 64.32-11.88 64.39-12.35 64.39-12.8L64.39-12.8Q64.39-13.85 63.94-14.65 63.49-15.45 62.19-15.45L62.19-15.45Q60.79-15.45 59.34-14.5 57.89-13.55 56.54-12 55.19-10.45 54.14-8.6 53.09-6.75 52.49-4.95 51.89-3.15 51.89-1.75L51.89-1.75Q51.89-0.05 53.14-0.05L53.14-0.05Q54.29-0.05 55.67-1.15 57.04-2.25 58.47-3.95 59.89-5.65 61.19-7.43 62.49-9.2 63.44-10.55L63.44-10.55Q63.64-10.8 63.79-10.8L63.79-10.8Q64.04-10.75 64.59-10.58 65.14-10.4 65.59-10.1 66.04-9.8 66.04-9.3L66.04-9.3Q66.04-8.8 65.59-8.03 65.14-7.25 64.59-6.3 64.04-5.35 63.59-4.4 63.14-3.45 63.14-2.55L63.14-2.55Q63.14-1.9 63.52-1.28 63.89-0.65 64.74-0.65L64.74-0.65Q65.99-0.65 68.17-2.48 70.34-4.3 72.59-8.45L72.59-8.45 73.39-7.65Q72.24-4.95 70.57-2.9 68.89-0.85 67.04 0.33 65.19 1.5 63.34 1.5L63.34 1.5Q61.34 1.5 60.39 0.28 59.44-0.95 59.34-2.4L59.34-2.4Q59.34-2.55 59.37-2.73 59.39-2.9 59.39-3.05L59.39-3.05Q57.34-0.5 55.64 0.93 53.94 2.35 52.04 2.35ZM77.09 2.55L77.09 2.55Q74.64 2.55 73.17 1.53 71.69 0.5 71.07-1.05 70.44-2.6 70.44-4.2L70.44-4.2Q70.44-5.65 70.84-6.45 71.24-7.25 71.84-7.65 72.44-8.05 72.97-8.25 73.49-8.45 73.69-8.65L73.69-8.65Q75.04-10.1 76.34-11.85 77.64-13.6 78.59-15.65L78.59-15.65 78.59-16.2Q78.59-18.15 79.24-18.95 79.89-19.75 80.74-19.75L80.74-19.75Q81.29-19.75 81.54-19.48 81.79-19.2 81.79-18.85L81.79-18.85Q81.79-18.6 81.67-18.15 81.54-17.7 81.54-16.95L81.54-16.95Q81.54-15.4 82.24-13.48 82.94-11.55 83.64-9.4 84.34-7.25 84.34-5L84.34-5Q84.34-4.35 84.29-3.83 84.24-3.3 84.09-2.8L84.09-2.8Q85.74-3.15 87.24-4.48 88.74-5.8 90.14-8.45L90.14-8.45 90.69-8Q89.74-5.15 87.92-3.53 86.09-1.9 83.74-1.55L83.74-1.55Q82.94 0.55 81.14 1.55 79.34 2.55 77.09 2.55ZM76.89 0.5L76.89 0.5Q77.74 0.5 78.64 0.03 79.54-0.45 80.09-1.6L80.09-1.6Q77.99-2.05 76.37-3.23 74.74-4.4 73.84-5.65L73.84-5.65Q73.04-5.5 73.04-4.15L73.04-4.15Q73.04-2.45 74.02-0.98 74.99 0.5 76.89 0.5ZM80.44-2.9L80.44-2.9Q80.54-3.3 80.57-3.8 80.59-4.3 80.59-4.7L80.59-4.7Q80.54-7 79.99-9.22 79.44-11.45 78.94-13.7L78.94-13.7Q77.94-12 76.72-10.23 75.49-8.45 74.44-7.35L74.44-7.35Q75.19-5.9 76.77-4.65 78.34-3.4 80.44-2.9ZM107.24 4.35L107.24 4.35Q105.84 4.35 104.59 3.58 103.34 2.8 103.34 1.6L103.34 1.6Q103.34 1 103.56 0.25 103.79-0.5 103.99-1.15L103.99-1.15Q105.54-5.95 106.91-10.13 108.29-14.3 109.66-18.18 111.04-22.05 112.59-25.95 114.14-29.85 116.04-34.1L116.04-34.1Q114.14-33.75 112.76-33.1 111.39-32.45 110.51-31.95 109.64-31.45 109.29-31.45L109.29-31.45Q109.04-31.45 108.59-31.78 108.14-32.1 107.81-32.5 107.49-32.9 107.49-33.2L107.49-33.2Q108.84-33.8 110.69-34.45 112.54-35.1 114.69-35.55 116.84-36 118.99-36L118.99-36Q121.29-36 123.69-35.38 126.09-34.75 128.11-33.52 130.14-32.3 131.36-30.5 132.59-28.7 132.59-26.25L132.59-26.25Q132.59-23.6 131.41-21.73 130.24-19.85 128.29-18.55 126.34-17.25 124.06-16.45 121.79-15.65 119.54-15.25 117.29-14.85 115.54-14.7 113.79-14.55 112.89-14.55L112.89-14.55 112.54-14.55Q111.09-9.55 109.74-4.6 108.39 0.35 107.24 4.35ZM112.89-15.85L112.89-15.85Q115.69-16.05 118.49-16.8 121.29-17.55 123.59-18.9 125.89-20.25 127.29-22.3 128.69-24.35 128.69-27.05L128.69-27.05Q128.69-29.65 127.39-31.25 126.09-32.85 124.01-33.65 121.94-34.45 119.64-34.5L119.64-34.5Q117.79-30.95 116.11-26.05 114.44-21.15 112.89-15.85ZM128.48 2.35L128.48 2.35Q126.88 2.35 125.71 1.28 124.53 0.2 124.53-1.95L124.53-1.95Q124.53-3.75 125.33-5.8 126.13-7.85 127.53-9.85 128.93-11.85 130.73-13.5 132.53-15.15 134.56-16.15 136.58-17.15 138.58-17.15L138.58-17.15Q140.68-17.15 142.11-16.07 143.53-15 143.53-13.25L143.53-13.25Q143.53-11.9 142.68-11.35 141.83-10.8 140.58-11L140.58-11Q140.68-11.4 140.76-11.88 140.83-12.35 140.83-12.8L140.83-12.8Q140.83-13.85 140.38-14.65 139.93-15.45 138.63-15.45L138.63-15.45Q137.23-15.45 135.78-14.5 134.33-13.55 132.98-12 131.63-10.45 130.58-8.6 129.53-6.75 128.93-4.95 128.33-3.15 128.33-1.75L128.33-1.75Q128.33-0.05 129.58-0.05L129.58-0.05Q130.73-0.05 132.11-1.15 133.48-2.25 134.91-3.95 136.33-5.65 137.63-7.43 138.93-9.2 139.88-10.55L139.88-10.55Q140.08-10.8 140.23-10.8L140.23-10.8Q140.48-10.75 141.03-10.58 141.58-10.4 142.03-10.1 142.48-9.8 142.48-9.3L142.48-9.3Q142.48-8.8 142.03-8.03 141.58-7.25 141.03-6.3 140.48-5.35 140.03-4.4 139.58-3.45 139.58-2.55L139.58-2.55Q139.58-1.9 139.96-1.28 140.33-0.65 141.18-0.65L141.18-0.65Q142.43-0.65 144.61-2.48 146.78-4.3 149.03-8.45L149.03-8.45 149.83-7.65Q148.68-4.95 147.01-2.9 145.33-0.85 143.48 0.33 141.63 1.5 139.78 1.5L139.78 1.5Q137.78 1.5 136.83 0.28 135.88-0.95 135.78-2.4L135.78-2.4Q135.78-2.55 135.81-2.73 135.83-2.9 135.83-3.05L135.83-3.05Q133.78-0.5 132.08 0.93 130.38 2.35 128.48 2.35ZM152.33 2.3L152.33 2.3Q150.13 2.3 148.86 1.03 147.58-0.25 147.58-2.85L147.58-2.85Q147.58-4.95 148.38-8.05 149.18-11.15 150.38-14.45L150.38-14.45Q149.98-14.55 149.51-14.63 149.03-14.7 148.63-14.9L148.63-14.9 148.63-16.25Q149.28-16.15 149.81-16.1 150.33-16.05 150.93-16L150.93-16Q151.98-18.65 153.21-21.15 154.43-23.65 155.63-25.6 156.83-27.55 157.93-28.7 159.03-29.85 159.83-29.85L159.83-29.85Q160.33-29.85 160.73-29.5 161.13-29.15 161.13-28.5L161.13-28.5Q161.13-27.55 160.11-25.68 159.08-23.8 157.56-21.28 156.03-18.75 154.63-15.85L154.63-15.85Q155.03-15.85 155.46-15.85 155.88-15.85 156.28-15.85L156.28-15.85Q158.28-15.85 160.08-15.93 161.88-16 163.73-16.2L163.73-16.2 163.73-14.8Q160.98-14.5 158.71-14.35 156.43-14.2 154.48-14.2L154.48-14.2Q154.33-14.2 154.16-14.2 153.98-14.2 153.83-14.2L153.83-14.2Q152.73-11.65 151.96-9 151.18-6.35 151.18-3.85L151.18-3.85Q151.18-1.75 151.83-0.88 152.48 0 153.93 0L153.93 0Q156.43 0 159.03-2.3 161.63-4.6 163.53-8.5L163.53-8.5 164.23-8Q162.98-5.1 161.08-2.75 159.18-0.4 156.96 0.95 154.73 2.3 152.33 2.3ZM167.88 2.2L167.88 2.2Q164.73 2.2 163.08 0.5 161.43-1.2 161.43-3.75L161.43-3.75Q161.43-6 162.55-8.47 163.68-10.95 165.58-13.13 167.48-15.3 169.75-16.68 172.03-18.05 174.28-18.05L174.28-18.05Q175.53-18.05 176.65-17.4 177.78-16.75 177.78-14.8L177.78-14.8Q177.78-12.9 176.65-11.23 175.53-9.55 173.7-8.25 171.88-6.95 169.65-6.13 167.43-5.3 165.23-5.1L165.23-5.1Q165.18-4.8 165.13-4.5 165.08-4.2 165.08-3.7L165.08-3.7Q165.08-3.3 165.2-2.63 165.33-1.95 165.7-1.28 166.08-0.6 166.88-0.15 167.68 0.3 168.98 0.3L168.98 0.3Q171.08 0.3 173.2-0.9 175.33-2.1 177.18-4.08 179.03-6.05 180.28-8.45L180.28-8.45 181.13-7.75Q179.78-4.75 177.68-2.53 175.58-0.3 173.05 0.95 170.53 2.2 167.88 2.2ZM165.68-6.65L165.68-6.65Q166.98-6.9 168.63-7.68 170.28-8.45 171.78-9.63 173.28-10.8 174.25-12.2 175.23-13.6 175.23-15.05L175.23-15.05Q175.23-15.6 175.03-15.85 174.83-16.1 174.33-16.1L174.33-16.1Q173.13-16.1 171.85-15.23 170.58-14.35 169.35-12.98 168.13-11.6 167.18-9.93 166.23-8.25 165.68-6.65ZM183.38 1.5L183.38 1.5Q181.08 1.5 180.15-0.05 179.23-1.6 179.23-3.75L179.23-3.75Q179.23-6.2 180.13-9.5 181.03-12.8 182.5-16.43 183.98-20.05 185.75-23.53 187.53-27 189.3-29.83 191.08-32.65 192.6-34.33 194.13-36 195.03-36L195.03-36Q195.63-36 196.05-35.35 196.48-34.7 196.73-33.77 196.98-32.85 196.98-32.1L196.98-32.1Q196.98-30.75 196.3-28.58 195.63-26.4 194.4-23.78 193.18-21.15 191.5-18.43 189.83-15.7 187.83-13.23 185.83-10.75 183.53-8.95L183.53-8.95Q183.33-7.7 183.15-6.45 182.98-5.2 182.98-4.15L182.98-4.15Q182.98-2.3 183.55-1.43 184.13-0.55 185.13-0.55L185.13-0.55Q186.43-0.55 187.75-1.75 189.08-2.95 190.28-4.78 191.48-6.6 192.38-8.55L192.38-8.55 193.43-7.95Q191.33-3.6 188.78-1.05 186.23 1.5 183.38 1.5ZM184.28-11.6L184.28-11.6Q186.03-13.4 187.58-15.63 189.13-17.85 190.45-20.15 191.78-22.45 192.78-24.63 193.78-26.8 194.33-28.53 194.88-30.25 194.93-31.25L194.93-31.25Q194.93-31.45 194.88-31.53 194.83-31.6 194.83-31.6L194.83-31.6Q194.43-31.6 193.5-30.43 192.58-29.25 191.35-27.25 190.13-25.25 188.83-22.65 187.53-20.05 186.33-17.2 185.13-14.35 184.28-11.6Z" opacity="1" transform="matrix(1,0,0,1,0,0)" fill="#44e8ff" class="undefined-text-0" data-fill-palette-color="primary" id="text-0"></path></svg></g></svg></g></svg></g></svg></g><g><svg viewBox="0 0 226.6634659570811 226.6634659570811" height="226.6634659570811" width="226.6634659570811"><g><svg></svg></g><g id="icon-0"><svg viewBox="0 0 226.6634659570811 226.6634659570811" height="226.6634659570811" width="226.6634659570811"><g><path d="M0 113.332c0-62.591 50.74-113.332 113.332-113.332 62.591 0 113.332 50.74 113.331 113.332 0 62.591-50.74 113.332-113.331 113.331-62.591 0-113.332-50.74-113.332-113.331zM113.332 217.437c57.496 0 104.106-46.61 104.105-104.105 0-57.496-46.61-104.106-104.105-104.106-57.496 0-104.106 46.61-104.106 104.106 0 57.496 46.61 104.106 104.106 104.105z" data-fill-palette-color="accent" fill="#44e8ff" stroke="transparent"></path></g><g transform="matrix(1,0,0,1,63.0576901459958,48.35994226982692)"><svg viewBox="0 0 100.54808566508949 129.94358141742725" height="129.94358141742725" width="100.54808566508949"><g><svg xmlns="http://www.w3.org/2000/svg" xmlns:xlink="http://www.w3.org/1999/xlink" version="1.1" x="0" y="0" viewBox="12.983 1 75.68599999999999 97.813" enable-background="new 0 0 100 100" xml:space="preserve" height="129.94358141742725" width="100.54808566508949" class="icon-ju-0" data-fill-palette-color="accent" id="ju-0"><g fill="#44e8ff" data-fill-palette-color="accent"><polygon fill-rule="evenodd" clip-rule="evenodd" points="12.983,10.59 30.001,98.813 24.129,39.764 53.15,37.872 53.096,27.989    64.549,1 53.622,18.977  " fill="#44e8ff" data-fill-palette-color="accent"></polygon><polygon fill-rule="evenodd" clip-rule="evenodd" points="59.389,54.548 64.549,1.007 55.809,40.723 36.197,41.768 37.767,62.23    30.001,98.813 42.058,58.914  " fill="#44e8ff" data-fill-palette-color="accent"></polygon><polygon fill-rule="evenodd" clip-rule="evenodd" points="62.8,67.182 63.349,56.729 47.37,60.484 47.338,72.281 30.001,98.813    51.681,71.197  " fill="#44e8ff" data-fill-palette-color="accent"></polygon><polygon fill-rule="evenodd" clip-rule="evenodd" points="65.711,62.394 80.552,57.663 82.061,45.131 66.162,47.226  " fill="#44e8ff" data-fill-palette-color="accent"></polygon><polygon fill-rule="evenodd" clip-rule="evenodd" points="72.07,44.502 83.058,43.085 84.639,32.807 76.56,32.434 64.549,1    72.979,31.967  " fill="#44e8ff" data-fill-palette-color="accent"></polygon><polygon fill-rule="evenodd" clip-rule="evenodd" points="87.413,31.294 88.669,21.788 79.125,19.094 64.549,1 79.032,23.437    78.61,30.437  " fill="#44e8ff" data-fill-palette-color="accent"></polygon></g></svg></g></svg></g></svg></g></svg></g></svg></g><defs></defs></svg><rect width="395.52" height="133.70847216616846" fill="none" stroke="none" visibility="hidden"></rect></g></svg></g></svg>